<?xml version="1.0" encoding="UTF-8"?>
<svg version="1.1" viewBox="0 0 120 120" xmlns="http://www.w3.org/2000/svg">
<defs>
<mask id="a">
<rect width="100%" height="100%" fill="#fff"/>
<circle cx="55.647" cy="27.824" r="10.194"/>
</mask>
</defs>
<path d="m44.934 70.814v27.82l30.15 13v-35.83c2.2711-1.7333 4.4257-3.614 6.45-5.63v41.18l25-12.59v-56l-9.61 3.7c0.96515-2.5478 1.7602-5.1569 2.38-7.81l9.3-3.59c1.6508-0.6026 3.4798 0.22959 4.11 1.87 0.1451 0.36954 0.21972 0.76299 0.22 1.16v62.7c5e-3 1.3137-0.7853 2.4998-2 3l-31.2 15.67c-0.91778 0.46507-2.0022 0.46507-2.92 0l-35-15.17-30.12 15.17c-1.5877 0.80489-3.5273 0.16882-4.33-1.42-0.22648-0.45004-0.34624-0.9462-0.35-1.45v-66.42c-3.723e-4 -1.4337 0.94437-2.6961 2.32-3.1l16.38-6.32c0.6082 2.0614 1.3293 4.0878 2.16 6.07l-14.4 5.55v59l25-12.59v-34.76c2.0121 2.3936 4.1695 4.6612 6.46 6.79z"/>
<path transform="translate(4.2997 -.38289)" d="m55.647 0.65906c13.106 0 24.756 11.65 24.756 24.756 0 14.562-24.756 40.775-24.756 40.775s-24.756-26.212-24.756-40.775c0-13.106 11.65-24.756 24.756-24.756z" mask="url(#a)" stroke-width="1.4562"/>
</svg>
